<svg width="508" height="531" xmlns="http://www.w3.org/2000/svg" xmlns:xlink="http://www.w3.org/1999/xlink" xml:space="preserve" overflow="hidden"><g transform="translate(-504 -1109)"><g><path d="M547.677 1249.78C623.046 1121.96 778.358 1073.91 894.575 1142.44 1010.79 1210.97 1043.91 1370.14 968.537 1497.95 893.169 1625.76 737.857 1673.82 621.64 1605.29 505.422 1536.76 472.308 1377.59 547.677 1249.78ZM635.801 1301.74C589.132 1380.89 606.057 1477.34 673.605 1517.17 741.152 1557 833.744 1525.13 880.413 1445.98 927.083 1366.84 910.158 1270.39 842.61 1230.56 775.062 1190.73 682.471 1222.6 635.801 1301.74Z" fill="#000000" fill-rule="evenodd" fill-opacity="1"/><path d="M687.858 1398.32C684.289 1380.41 694.381 1363.3 710.398 1360.11 726.416 1356.92 742.294 1368.85 745.862 1386.76 749.431 1404.67 739.339 1421.78 723.322 1424.97 707.304 1428.16 691.427 1416.23 687.858 1398.32Z" fill="#000000" fill-rule="evenodd" fill-opacity="1"/><path d="M696.015 1366.81 837.62 1275.62 852.838 1293.72 738.669 1417.55Z" fill="#000000" fill-rule="evenodd" fill-opacity="1"/></g></g></svg>